<?xml version="1.0" encoding="UTF-8"?>
<!DOCTYPE svg PUBLIC "-//W3C//DTD SVG 1.1//EN" "http://www.w3.org/Graphics/SVG/1.1/DTD/svg11.dtd">
<!-- Creator: CorelDRAW 2018 (64 Bit Versão de avaliação) -->
<svg xmlns="http://www.w3.org/2000/svg" xml:space="preserve" width="26.458mm" height="26.458mm" version="1.1" style="shape-rendering:geometricPrecision; text-rendering:geometricPrecision; image-rendering:optimizeQuality; fill-rule:evenodd; clip-rule:evenodd"
viewBox="0 0 2645.8 2645.8"
 xmlns:xlink="http://www.w3.org/1999/xlink">
 <defs>
  <style type="text/css">
   <![CDATA[
    .fil1 {fill:#020202}
    .fil2 {fill:#FAA002}
    .fil0 {fill:#FAA002}
   ]]>
  </style>
 </defs>
 <g id="Camada_x0020_1">
  <metadata id="CorelCorpID_0Corel-Layer"/>
  <path class="fil0" d="M1322.9 148.51c648.6,0 1174.39,525.79 1174.39,1174.39 0,648.6 -525.79,1174.39 -1174.39,1174.39 -176.68,0 -344.22,-39.07 -494.52,-108.97 -3.97,5.77 -7.97,11.27 -11.97,16.42 -26.94,34.66 -60.91,55.48 -96.58,64.63 -0.97,8.84 -3.06,18.28 -6.02,28.1 182.32,94.73 389.43,148.33 609.09,148.33 730.62,0 1322.9,-592.28 1322.9,-1322.9 0,-730.62 -592.28,-1322.9 -1322.9,-1322.9 -730.62,0 -1322.9,592.28 -1322.9,1322.9 0,411.44 187.84,779.02 482.43,1021.63 5.13,-4.39 10.53,-8.42 16.25,-12 -4.6,-27.44 -2.57,-57.93 8.12,-90.64 4.54,-13.9 12.64,-32.39 22.82,-53.08 -234.23,-214.7 -381.11,-523.13 -381.11,-865.91 0,-648.6 525.79,-1174.39 1174.39,-1174.39z"/>
  <path class="fil1" d="M2077.47 644.68c4.55,-110.67 7.56,-248.15 -21.42,-350.69 -28.13,-99.53 -101.55,-166.84 -212,-168.1 -132.7,-1.51 -285.52,109.62 -402.12,174.62l-618.7 339.65c-71.36,39.93 -163.97,105.77 -198.15,182 -51.61,115.13 4.91,221.73 74.68,270.72 122.95,86.33 881.2,502.72 981.03,553.9 93.65,48.02 193.4,79.67 291.85,4.42 84.29,-64.43 95.58,-137.98 103.42,-274.05 14,-243.22 -8.7,-486.89 1.41,-732.47z"/>
  <path class="fil2" d="M2077.47 644.68c-10.11,245.58 12.59,489.25 -1.41,732.47 -7.84,136.07 -19.13,209.62 -103.42,274.05 -98.45,75.25 -198.2,43.6 -291.85,-4.42 -99.83,-51.18 -858.08,-467.57 -981.03,-553.9 -69.77,-48.99 -126.29,-155.59 -74.68,-270.72 34.18,-76.23 126.79,-142.07 198.15,-182l618.7 -339.65c116.6,-65 269.42,-176.13 402.12,-174.62 110.45,1.26 183.87,68.57 212,168.1 28.98,102.54 25.97,240.02 21.42,350.69zm-471.17 -579.17c-11.66,11.84 -208.32,119.65 -239.19,136.72 -83.63,46.25 -161.07,91.35 -244,137.57 -82.06,45.75 -161.46,92 -244.08,137.48l-243.27 138.13c-65.82,47.91 -130.15,121.83 -152.79,226.24 -24.81,114.39 17.55,229.23 77.63,288.63 66.75,66 129.59,106.3 221.7,159.22 83.49,47.97 164.85,88 246.78,134.73 162.99,92.97 322.71,184.31 490.11,273.07 81.82,43.39 160.64,99.26 263.13,118.71 117.31,22.26 226.87,-31.34 289.18,-85.79 71.14,-62.18 108.44,-127.01 125.52,-251.99 26.82,-196.28 -9.41,-822.36 5.17,-1101.85l-21.7 -105.6c-9.14,-35.37 -16.83,-63.82 -32.62,-96.04 -58.32,-119 -199.58,-184.82 -339.2,-173.48 -88.3,7.16 -137.78,35.86 -202.37,64.25z"/>
  <path class="fil0" d="M691.01 1751.91c0.96,-78.95 37.16,-148.09 79.62,-187.68 57.85,-53.94 141.44,7.16 189.32,33.64 53.26,29.44 318.97,169.06 326.82,201.56 14.55,60.21 -48.75,164.68 -76.11,188.42 -59.45,51.54 -142.83,-12.18 -187.69,-38.08 -57.48,-33.16 -111.74,-63.68 -168.16,-96.3 -30.36,-17.54 -147.05,-84.51 -163.8,-101.56zm-128.13 0c7.52,91.85 123.85,149.63 198.99,191.93 176.94,99.63 385.11,282.98 541.09,125.16 67.25,-68.05 121.52,-183.19 115.78,-274.46 -5.46,-86.85 -128.84,-152.46 -199.44,-193.25 -82.42,-47.62 -165.61,-96.4 -254.85,-139.72 -116.11,-56.35 -203.12,-75.91 -284.03,19.26 -45.98,54.09 -125.79,170.25 -117.54,271.08z"/>
  <path class="fil1" d="M691.01 1751.91c16.75,17.05 133.44,84.02 163.8,101.56 56.42,32.62 110.68,63.14 168.16,96.3 44.86,25.9 128.24,89.62 187.69,38.08 27.36,-23.74 90.66,-128.21 76.11,-188.42 -7.85,-32.5 -273.56,-172.12 -326.82,-201.56 -47.88,-26.48 -131.47,-87.58 -189.32,-33.64 -42.46,39.59 -78.66,108.73 -79.62,187.68z"/>
  <path class="fil2" d="M442.4 2582.33c0,57.49 22.13,60.48 49.42,63.04 38.93,3.64 56.35,-16.07 70.81,-39.84 17.38,-28.54 72.51,-118.25 72.51,-146.69 0,-38.64 -30.08,-59.63 -70.09,-59.63 -35.71,0 -59.18,51.73 -72.93,78.14 -15.06,28.9 -49.72,68.41 -49.72,104.98zm425.91 -442.89c34.88,-98.59 -95.75,-169.7 -161.12,-83.19 -24.15,31.96 -105.3,169.19 -119.32,212.12 -35.63,109.06 100.91,161.59 161.2,84.02 22.11,-28.43 106.94,-178.19 119.24,-212.95z"/>
 </g>
</svg>
